<svg width="0" height="0" class="hidden">
  <symbol clip-rule="evenodd" fill-rule="evenodd" stroke-linejoin="round" stroke-miterlimit="2" xmlns="http://www.w3.org/2000/svg" viewBox="0 0 24 24" id="iconmonstr-task-list-lined">
    <path d="m22 17.75c0-.414-.336-.75-.75-.75h-9.5c-.414 0-.75.336-.75.75s.336.75.75.75h9.5c.414 0 .75-.336.75-.75zm-19.749-1.377 2.172 1.936c.144.128.324.191.502.191.204 0 .408-.082.557-.244l3.677-4.02c.131-.145.197-.326.197-.506 0-.413-.334-.751-.753-.751-.205 0-.408.082-.558.244l-3.174 3.47-1.616-1.44c-.144-.128-.323-.191-.502-.191-.418 0-.753.338-.753.751 0 .206.084.412.251.56zm15.749-2.623c0-.414-.336-.75-.75-.75h-5.5c-.414 0-.75.336-.75.75s.336.75.75.75h5.5c.414 0 .75-.336.75-.75zm-15.749-5.356 2.172 1.936c.144.128.324.191.502.191.204 0 .408-.082.557-.244l3.677-4.02c.131-.144.197-.326.197-.506 0-.412-.334-.751-.753-.751-.205 0-.408.082-.558.244l-3.174 3.471-1.616-1.44c-.144-.128-.323-.192-.502-.192-.418 0-.753.338-.753.752 0 .206.084.411.251.559zm17.749 1.356c0-.414-.336-.75-.75-.75h-7.5c-.414 0-.75.336-.75.75s.336.75.75.75h7.5c.414 0 .75-.336.75-.75zm2-4c0-.414-.336-.75-.75-.75h-9.5c-.414 0-.75.336-.75.75s.336.75.75.75h9.5c.414 0 .75-.336.75-.75z" fill-rule="nonzero"></path>
  </symbol>
  <symbol xmlns="http://www.w3.org/2000/svg" fill-rule="evenodd" clip-rule="evenodd" viewBox="0 0 24 24" id="iconmonstr-picture-thin">
    <path d="M24 22h-24v-20h24v20zm-1-19h-22v18h22v-18zm-1 16h-19l4-7.492 3 3.048 5.013-7.556 6.987 12zm-11.848-2.865l-2.91-2.956-2.574 4.821h15.593l-5.303-9.108-4.806 7.243zm-4.652-11.135c1.38 0 2.5 1.12 2.5 2.5s-1.12 2.5-2.5 2.5-2.5-1.12-2.5-2.5 1.12-2.5 2.5-2.5zm0 1c.828 0 1.5.672 1.5 1.5s-.672 1.5-1.5 1.5-1.5-.672-1.5-1.5.672-1.5 1.5-1.5z"></path>
  </symbol>
  <symbol clip-rule="evenodd" fill-rule="evenodd" stroke-linejoin="round" stroke-miterlimit="2" xmlns="http://www.w3.org/2000/svg" viewBox="0 0 24 24" id="iconmonstr-plus-lined">
    <path d="m11 11h-7.25c-.414 0-.75.336-.75.75s.336.75.75.75h7.25v7.25c0 .414.336.75.75.75s.75-.336.75-.75v-7.25h7.25c.414 0 .75-.336.75-.75s-.336-.75-.75-.75h-7.25v-7.25c0-.414-.336-.75-.75-.75s-.75.336-.75.75z" fill-rule="nonzero"></path>
  </symbol>
  <symbol clip-rule="evenodd" fill-rule="evenodd" stroke-linejoin="round" stroke-miterlimit="2" xmlns="http://www.w3.org/2000/svg" viewBox="0 0 24 24" id="iconmonstr-x-mark-lined">
    <path d="m12 10.93 5.719-5.72c.146-.146.339-.219.531-.219.404 0 .75.324.75.749 0 .193-.073.385-.219.532l-5.72 5.719 5.719 5.719c.147.147.22.339.22.531 0 .427-.349.75-.75.75-.192 0-.385-.073-.531-.219l-5.719-5.719-5.719 5.719c-.146.146-.339.219-.531.219-.401 0-.75-.323-.75-.75 0-.192.073-.384.22-.531l5.719-5.719-5.72-5.719c-.146-.147-.219-.339-.219-.532 0-.425.346-.749.75-.749.192 0 .385.073.531.219z"></path>
  </symbol>
  <symbol xmlns="http://www.w3.org/2000/svg" viewBox="0 0 24 24" id="iconmonstr-paper-plane-2">
    <path d="M0 12l11 3.1 7-8.1-8.156 5.672-4.312-1.202 15.362-7.68-3.974 14.57-3.75-3.339-2.17 2.925v-.769l-2-.56v7.383l4.473-6.031 4.527 4.031 6-22z"></path>
  </symbol>
  <symbol xmlns="http://www.w3.org/2000/svg" viewBox="0 0 24 24" id="iconmonstr-map-5">
    <path d="M17.492 15.432c-.433 0-.855-.087-1.253-.259l.467-1.082c.25.107.514.162.786.162.222 0 .441-.037.651-.11l.388 1.112c-.334.118-.683.177-1.039.177zm-10.922-.022c-.373 0-.741-.066-1.093-.195l.407-1.105c.221.081.451.122.686.122.26 0 .514-.05.754-.148l.447 1.09c-.382.157-.786.236-1.201.236zm8.67-.783l-1.659-.945.583-1.024 1.66.945-.584 1.024zm-6.455-.02l-.605-1.011 1.639-.981.605 1.011-1.639.981zm3.918-1.408c-.243-.101-.5-.153-.764-.153-.23 0-.457.04-.674.119l-.401-1.108c.346-.125.708-.188 1.075-.188.42 0 .83.082 1.217.244l-.453 1.086zm7.327-.163c-.534 0-.968.433-.968.968 0 .535.434.968.968.968.535 0 .969-.434.969-.968 0-.535-.434-.968-.969-.968zm-16.061 0c-.535 0-.969.433-.969.968 0 .535.434.968.969.968s.969-.434.969-.968c0-.535-.434-.968-.969-.968zm18.031-.832v6.683l-4 2.479v-4.366h-1v4.141l-4-2.885v-3.256h-2v3.255l-4 2.885v-4.14h-1v4.365l-4-2.479v-13.294l4 2.479v3.929h1v-3.927l4-2.886v4.813h2v-4.813l1.577 1.138c-.339-.701-.577-1.518-.577-2.524l.019-.345-2.019-1.456-5.545 4-6.455-4v18l6.455 4 5.545-4 5.545 4 6.455-4v-11.618l-.039.047c-.831.982-1.614 1.918-1.961 3.775zm2-8.403c0-2.099-1.9-3.801-4-3.801s-4 1.702-4 3.801c0 3.121 3.188 3.451 4 8.199.812-4.748 4-5.078 4-8.199zm-5.5.199c0-.829.672-1.5 1.5-1.5s1.5.671 1.5 1.5-.672 1.5-1.5 1.5-1.5-.671-1.5-1.5zm-.548 8c-.212-.992-.547-1.724-.952-2.334v2.334h.952z"></path>
  </symbol>
  <symbol xmlns="http://www.w3.org/2000/svg" viewBox="0 0 24 24" id="iconmonstr-time-17">
    <path d="M24 12c0 6.627-5.373 12-12 12s-12-5.373-12-12h2c0 5.514 4.486 10 10 10s10-4.486 10-10-4.486-10-10-10c-2.777 0-5.287 1.141-7.099 2.977l2.061 2.061-6.962 1.354 1.305-7.013 2.179 2.18c2.172-2.196 5.182-3.559 8.516-3.559 6.627 0 12 5.373 12 12zm-13-6v8h7v-2h-5v-6h-2z"></path>
  </symbol>
  <symbol xmlns="http://www.w3.org/2000/svg" viewBox="0 0 28 25" id="iconmonstr-generation-12">
    <path d="M18.5 13.5c0 .828-.56 1.5-1.25 1.5s-1.25-.672-1.25-1.5.56-1.5 1.25-1.5 1.25.672 1.25 1.5zm-6.5 0c0-.828-.56-1.5-1.25-1.5s-1.25.672-1.25 1.5.56 1.5 1.25 1.5 1.25-.672 1.25-1.5zm2 6.854c2.235 0 3-2.354 3-2.354h-6s.847 2.354 3 2.354zm14-3.771c0 5.068-4.115 7.287-8.627 6.481-1.657 1.254-3.476 1.936-5.373 1.936s-3.717-.682-5.374-1.935c-4.511.805-8.626-1.413-8.626-6.482 0-7.998 5.641-16.583 14-16.583s14 8.585 14 16.583zm-6.669 1.252c.122-.202.313-.354.536-.43 1.565-.53 2.133-2.172 2.133-3.146 0-.28-.024-.528-.059-.757-4.181-.021-6.936-5.186-6.823-7.955-1.435 2.322-4.245 5.109-6.993 5.109.781-1.266.766-2.203.625-3.28-.633 1.267-3.118 5.292-6.633 5.85-.072.293-.117.632-.117 1.033 0 .975.568 2.617 2.133 3.146.224.076.414.228.536.43 2.011 3.331 4.614 5.165 7.331 5.165 2.716 0 5.32-1.834 7.331-5.165z"></path>
  </symbol>
  <symbol xmlns="http://www.w3.org/2000/svg" viewBox="0 0 24 24" id="iconmonstr-generation-3">
    <path d="M16.5 11.5c0 .828-.56 1.5-1.25 1.5s-1.25-.672-1.25-1.5.56-1.5 1.25-1.5 1.25.672 1.25 1.5zm-7.75-1.5c-.69 0-1.25.672-1.25 1.5s.56 1.5 1.25 1.5 1.25-.672 1.25-1.5-.56-1.5-1.25-1.5zm3.25 8.354c2.235 0 3-2.354 3-2.354h-6s.847 2.354 3 2.354zm12-5.803c0 1.925-.896 4.738-3.317 5.188-1.959 3.492-4.877 5.261-8.683 5.261-3.805 0-6.724-1.769-8.683-5.26-2.42-.451-3.317-3.263-3.317-5.189 0-2.139.804-4.093 2.843-4.223.453-5.099 3.946-8.328 9.157-8.328s8.704 3.229 9.157 8.329c2.036.129 2.843 2.073 2.843 4.222zm-2 0c0-1.084-.229-1.856-.631-2.117-.272-.177-.615-.104-.756-.041-.658.293-1.406-.19-1.406-.914 0-.755-.1-2.246-.743-3.7-1.159-2.156-2.687 1.308-6.464 1.308s-5.305-3.464-6.464-1.307c-.643 1.453-.743 2.944-.743 3.7 0 .719-.744 1.209-1.406.914-.143-.063-.483-.136-.756.041-1.102.717-.798 5.326 1.336 5.367.368.007.703.216.871.543 2.39 4.655 5.982 4.655 7.162 4.655 1.181 0 4.771 0 7.162-4.655.168-.328.503-.536.87-.543 1.853-.036 1.968-3.219 1.968-3.251z"></path>
  </symbol>
  <symbol xmlns="http://www.w3.org/2000/svg" viewBox="0 0 24 24" id="iconmonstr-thumb-12">
    <path d="M24 11.936c0-1-.986-6.373-1.486-8.25-.714-2.689-2.471-3.686-5.009-3.686-2.283 0-4.079.617-5.336 1.158-2.05.883-3.791 1.519-6.169 1.746v-.904h-6v12h6v-.73c2.454.585 4.852 2.066 6.4 7.402.483 1.66.972 3.328 2.833 3.328 3.448 0 3.005-5.531 2.196-8.814 1.106-.466 2.767-.692 3.977-.744 1.426-.06 2.594-.858 2.594-2.506zm-20 .064h-2v-8h2v8zm15.755-1.302l1.394.167c1.075.129 1.105 1.525.051 1.584-2.749.154-5.06 1.013-6.12 1.556.43 1.748.92 3.463.92 5.534 0 2.505-.781 3.666-1.679.574-1.993-6.859-5.057-8.364-8.321-9.113v-6c2.521-.072 4.72-1.041 6.959-2.005 1.731-.745 4.849-1.495 6.416-.614 1.295.836 1.114 1.734.292 1.661l-.771-.032c-.815-.094-.92 1.068-.109 1.141 0 0 1.321.062 1.745.115.976.123 1.028 1.607-.04 1.551-.457-.024-1.143-.041-1.143-.041-.797-.031-.875 1.078-.141 1.172 0 0 .714.005 1.761.099s1.078 1.609-.004 1.563c-.868-.037-1.069-.027-1.069-.027-.75.005-.875 1.028-.141 1.115z"></path>
  </symbol>
  <symbol xmlns="http://www.w3.org/2000/svg" viewBox="0 0 24 24" id="iconmonstr-thumb-10">
    <path d="M21.406 9.558c-1.21-.051-2.87-.278-3.977-.744.809-3.283 1.253-8.814-2.196-8.814-1.861 0-2.351 1.668-2.833 3.329-1.548 5.336-3.946 6.816-6.4 7.401v-.73h-6v12h6v-.904c2.378.228 4.119.864 6.169 1.746 1.257.541 3.053 1.158 5.336 1.158 2.538 0 4.295-.997 5.009-3.686.5-1.877 1.486-7.25 1.486-8.25 0-1.648-1.168-2.446-2.594-2.506zm-17.406 10.442h-2v-8h2v8zm15.896-5.583s.201.01 1.069-.027c1.082-.046 1.051 1.469.004 1.563l-1.761.099c-.734.094-.656 1.203.141 1.172 0 0 .686-.017 1.143-.041 1.068-.056 1.016 1.429.04 1.551-.424.053-1.745.115-1.745.115-.811.072-.706 1.235.109 1.141l.771-.031c.822-.074 1.003.825-.292 1.661-1.567.881-4.685.131-6.416-.614-2.239-.965-4.438-1.934-6.959-2.006v-6c3.264-.749 6.328-2.254 8.321-9.113.898-3.092 1.679-1.931 1.679.574 0 2.071-.49 3.786-.921 5.533 1.061.543 3.371 1.402 6.12 1.556 1.055.059 1.024 1.455-.051 1.584l-1.394.167s-.608 1.111.142 1.116z"></path>
  </symbol>
  <symbol xmlns="http://www.w3.org/2000/svg" viewBox="0 0 24 24" id="iconmonstr-stop-2">
    <path d="M11.75 3.092v8.538c0 .383.688.391.688 0v-7.17c0-1.357 2.395-1.399 2.395 0v8.125c0 .5.491.573.676.197.176-.361.908-1.974.917-1.991.735-1.541 3.193-.605 2.429 1.209-.19.492-2.544 5.832-3.144 7.179-.629 1.411-1.857 2.821-4.126 2.821h-3.94c-2.388 0-3.645-1.417-3.645-3.895v-10.812c0-1.434 1.976-1.362 1.976-.066v4.741c0 .391.715.389.715 0v-7.618c0-1.475 2.208-1.435 2.208 0v7.192c0 .397.664.378.664-.008v-8.442c0-1.435 2.187-1.477 2.187 0zm-1.081-3.092c-1.055 0-1.972.499-2.53 1.277-1.833-.2-3.391 1.146-3.446 2.972-1.554.143-2.693 1.403-2.693 3.044v10.812c0 3.636 2.163 5.895 5.645 5.895h3.94c2.686 0 4.8-1.423 5.953-4.006.437-.981 2.873-6.496 3.17-7.24.464-1.119.373-2.297-.25-3.236-.761-1.146-2.233-1.75-3.624-1.41v-3.649c0-1.914-1.646-3.203-3.53-3.017-.532-.879-1.492-1.442-2.635-1.442z"></path>
  </symbol>
  <symbol xmlns="http://www.w3.org/2000/svg" fill-rule="evenodd" clip-rule="evenodd" viewBox="0 0 24 24" id="iconmonstr-building-8">
    <path d="M13 23l-9.983-.014v-9.979l8.974-7.995c1.124.999 2.25 1.998 3.378 2.998l2.255 1.999c1.127.999 2.252 1.992 3.376 2.991v10l-5.993-.014-.007-4.986h-2v5zm6-2l.019-7.121-7.028-6.193-6.991 6.218v7.096h6v-5h6v5h2zm-10-5v3h-2v-3h2zm3-15l12 10.654-1.328 1.494-10.672-9.488-10.672 9.488-1.328-1.494 12-10.654z"></path>
  </symbol>
</svg>
