<svg width="0" height="0" class="hidden">
  <symbol clip-rule="evenodd" fill-rule="evenodd" stroke-linejoin="round" stroke-miterlimit="2" xmlns="http://www.w3.org/2000/svg" viewBox="0 0 24 24" id="iconmonstr-task-list-lined">
    <path d="m22 17.75c0-.414-.336-.75-.75-.75h-9.5c-.414 0-.75.336-.75.75s.336.75.75.75h9.5c.414 0 .75-.336.75-.75zm-19.749-1.377 2.172 1.936c.144.128.324.191.502.191.204 0 .408-.082.557-.244l3.677-4.02c.131-.145.197-.326.197-.506 0-.413-.334-.751-.753-.751-.205 0-.408.082-.558.244l-3.174 3.47-1.616-1.44c-.144-.128-.323-.191-.502-.191-.418 0-.753.338-.753.751 0 .206.084.412.251.56zm15.749-2.623c0-.414-.336-.75-.75-.75h-5.5c-.414 0-.75.336-.75.75s.336.75.75.75h5.5c.414 0 .75-.336.75-.75zm-15.749-5.356 2.172 1.936c.144.128.324.191.502.191.204 0 .408-.082.557-.244l3.677-4.02c.131-.144.197-.326.197-.506 0-.412-.334-.751-.753-.751-.205 0-.408.082-.558.244l-3.174 3.471-1.616-1.44c-.144-.128-.323-.192-.502-.192-.418 0-.753.338-.753.752 0 .206.084.411.251.559zm17.749 1.356c0-.414-.336-.75-.75-.75h-7.5c-.414 0-.75.336-.75.75s.336.75.75.75h7.5c.414 0 .75-.336.75-.75zm2-4c0-.414-.336-.75-.75-.75h-9.5c-.414 0-.75.336-.75.75s.336.75.75.75h9.5c.414 0 .75-.336.75-.75z" fill-rule="nonzero"></path>
  </symbol>
  <symbol xmlns="http://www.w3.org/2000/svg" fill-rule="evenodd" clip-rule="evenodd" viewBox="0 0 24 24" id="iconmonstr-picture-thin">
    <path d="M24 22h-24v-20h24v20zm-1-19h-22v18h22v-18zm-1 16h-19l4-7.492 3 3.048 5.013-7.556 6.987 12zm-11.848-2.865l-2.91-2.956-2.574 4.821h15.593l-5.303-9.108-4.806 7.243zm-4.652-11.135c1.38 0 2.5 1.12 2.5 2.5s-1.12 2.5-2.5 2.5-2.5-1.12-2.5-2.5 1.12-2.5 2.5-2.5zm0 1c.828 0 1.5.672 1.5 1.5s-.672 1.5-1.5 1.5-1.5-.672-1.5-1.5.672-1.5 1.5-1.5z"></path>
  </symbol>
  <symbol clip-rule="evenodd" fill-rule="evenodd" stroke-linejoin="round" stroke-miterlimit="2" xmlns="http://www.w3.org/2000/svg" viewBox="0 0 24 24" id="iconmonstr-plus-lined">
    <path d="m11 11h-7.25c-.414 0-.75.336-.75.75s.336.75.75.75h7.25v7.25c0 .414.336.75.75.75s.75-.336.75-.75v-7.25h7.25c.414 0 .75-.336.75-.75s-.336-.75-.75-.75h-7.25v-7.25c0-.414-.336-.75-.75-.75s-.75.336-.75.75z" fill-rule="nonzero"></path>
  </symbol>
  <symbol clip-rule="evenodd" fill-rule="evenodd" stroke-linejoin="round" stroke-miterlimit="2" xmlns="http://www.w3.org/2000/svg" viewBox="0 0 24 24" id="iconmonstr-x-mark-lined">
    <path d="m12 10.93 5.719-5.72c.146-.146.339-.219.531-.219.404 0 .75.324.75.749 0 .193-.073.385-.219.532l-5.72 5.719 5.719 5.719c.147.147.22.339.22.531 0 .427-.349.75-.75.75-.192 0-.385-.073-.531-.219l-5.719-5.719-5.719 5.719c-.146.146-.339.219-.531.219-.401 0-.75-.323-.75-.75 0-.192.073-.384.22-.531l5.719-5.719-5.72-5.719c-.146-.147-.219-.339-.219-.532 0-.425.346-.749.75-.749.192 0 .385.073.531.219z"></path>
  </symbol>
  <symbol xmlns="http://www.w3.org/2000/svg" viewBox="0 0 24 24" id="iconmonstr-paper-plane-2">
    <path d="M0 12l11 3.1 7-8.1-8.156 5.672-4.312-1.202 15.362-7.68-3.974 14.57-3.75-3.339-2.17 2.925v-.769l-2-.56v7.383l4.473-6.031 4.527 4.031 6-22z"></path>
  </symbol>
  <symbol xmlns="http://www.w3.org/2000/svg" viewBox="0 0 24 24" id="iconmonstr-map-5">
    <path d="M17.492 15.432c-.433 0-.855-.087-1.253-.259l.467-1.082c.25.107.514.162.786.162.222 0 .441-.037.651-.11l.388 1.112c-.334.118-.683.177-1.039.177zm-10.922-.022c-.373 0-.741-.066-1.093-.195l.407-1.105c.221.081.451.122.686.122.26 0 .514-.05.754-.148l.447 1.09c-.382.157-.786.236-1.201.236zm8.67-.783l-1.659-.945.583-1.024 1.66.945-.584 1.024zm-6.455-.02l-.605-1.011 1.639-.981.605 1.011-1.639.981zm3.918-1.408c-.243-.101-.5-.153-.764-.153-.23 0-.457.04-.674.119l-.401-1.108c.346-.125.708-.188 1.075-.188.42 0 .83.082 1.217.244l-.453 1.086zm7.327-.163c-.534 0-.968.433-.968.968 0 .535.434.968.968.968.535 0 .969-.434.969-.968 0-.535-.434-.968-.969-.968zm-16.061 0c-.535 0-.969.433-.969.968 0 .535.434.968.969.968s.969-.434.969-.968c0-.535-.434-.968-.969-.968zm18.031-.832v6.683l-4 2.479v-4.366h-1v4.141l-4-2.885v-3.256h-2v3.255l-4 2.885v-4.14h-1v4.365l-4-2.479v-13.294l4 2.479v3.929h1v-3.927l4-2.886v4.813h2v-4.813l1.577 1.138c-.339-.701-.577-1.518-.577-2.524l.019-.345-2.019-1.456-5.545 4-6.455-4v18l6.455 4 5.545-4 5.545 4 6.455-4v-11.618l-.039.047c-.831.982-1.614 1.918-1.961 3.775zm2-8.403c0-2.099-1.9-3.801-4-3.801s-4 1.702-4 3.801c0 3.121 3.188 3.451 4 8.199.812-4.748 4-5.078 4-8.199zm-5.5.199c0-.829.672-1.5 1.5-1.5s1.5.671 1.5 1.5-.672 1.5-1.5 1.5-1.5-.671-1.5-1.5zm-.548 8c-.212-.992-.547-1.724-.952-2.334v2.334h.952z"></path>
  </symbol>
  <symbol xmlns="http://www.w3.org/2000/svg" viewBox="0 0 24 24" id="iconmonstr-time-17">
    <path d="M24 12c0 6.627-5.373 12-12 12s-12-5.373-12-12h2c0 5.514 4.486 10 10 10s10-4.486 10-10-4.486-10-10-10c-2.777 0-5.287 1.141-7.099 2.977l2.061 2.061-6.962 1.354 1.305-7.013 2.179 2.18c2.172-2.196 5.182-3.559 8.516-3.559 6.627 0 12 5.373 12 12zm-13-6v8h7v-2h-5v-6h-2z"></path>
  </symbol>
  <symbol xmlns="http://www.w3.org/2000/svg" viewBox="0 0 28 25" id="iconmonstr-generation-12">
    <path d="M18.5 13.5c0 .828-.56 1.5-1.25 1.5s-1.25-.672-1.25-1.5.56-1.5 1.25-1.5 1.25.672 1.25 1.5zm-6.5 0c0-.828-.56-1.5-1.25-1.5s-1.25.672-1.25 1.5.56 1.5 1.25 1.5 1.25-.672 1.25-1.5zm2 6.854c2.235 0 3-2.354 3-2.354h-6s.847 2.354 3 2.354zm14-3.771c0 5.068-4.115 7.287-8.627 6.481-1.657 1.254-3.476 1.936-5.373 1.936s-3.717-.682-5.374-1.935c-4.511.805-8.626-1.413-8.626-6.482 0-7.998 5.641-16.583 14-16.583s14 8.585 14 16.583zm-6.669 1.252c.122-.202.313-.354.536-.43 1.565-.53 2.133-2.172 2.133-3.146 0-.28-.024-.528-.059-.757-4.181-.021-6.936-5.186-6.823-7.955-1.435 2.322-4.245 5.109-6.993 5.109.781-1.266.766-2.203.625-3.28-.633 1.267-3.118 5.292-6.633 5.85-.072.293-.117.632-.117 1.033 0 .975.568 2.617 2.133 3.146.224.076.414.228.536.43 2.011 3.331 4.614 5.165 7.331 5.165 2.716 0 5.32-1.834 7.331-5.165z"></path>
  </symbol>
  <symbol xmlns="http://www.w3.org/2000/svg" viewBox="0 0 24 24" id="iconmonstr-generation-3">
    <path d="M16.5 11.5c0 .828-.56 1.5-1.25 1.5s-1.25-.672-1.25-1.5.56-1.5 1.25-1.5 1.25.672 1.25 1.5zm-7.75-1.5c-.69 0-1.25.672-1.25 1.5s.56 1.5 1.25 1.5 1.25-.672 1.25-1.5-.56-1.5-1.25-1.5zm3.25 8.354c2.235 0 3-2.354 3-2.354h-6s.847 2.354 3 2.354zm12-5.803c0 1.925-.896 4.738-3.317 5.188-1.959 3.492-4.877 5.261-8.683 5.261-3.805 0-6.724-1.769-8.683-5.26-2.42-.451-3.317-3.263-3.317-5.189 0-2.139.804-4.093 2.843-4.223.453-5.099 3.946-8.328 9.157-8.328s8.704 3.229 9.157 8.329c2.036.129 2.843 2.073 2.843 4.222zm-2 0c0-1.084-.229-1.856-.631-2.117-.272-.177-.615-.104-.756-.041-.658.293-1.406-.19-1.406-.914 0-.755-.1-2.246-.743-3.7-1.159-2.156-2.687 1.308-6.464 1.308s-5.305-3.464-6.464-1.307c-.643 1.453-.743 2.944-.743 3.7 0 .719-.744 1.209-1.406.914-.143-.063-.483-.136-.756.041-1.102.717-.798 5.326 1.336 5.367.368.007.703.216.871.543 2.39 4.655 5.982 4.655 7.162 4.655 1.181 0 4.771 0 7.162-4.655.168-.328.503-.536.87-.543 1.853-.036 1.968-3.219 1.968-3.251z"></path>
  </symbol>
  <symbol xmlns="http://www.w3.org/2000/svg" viewBox="0 0 24 24" id="iconmonstr-thumb-12">
    <path d="M24 11.936c0-1-.986-6.373-1.486-8.25-.714-2.689-2.471-3.686-5.009-3.686-2.283 0-4.079.617-5.336 1.158-2.05.883-3.791 1.519-6.169 1.746v-.904h-6v12h6v-.73c2.454.585 4.852 2.066 6.4 7.402.483 1.66.972 3.328 2.833 3.328 3.448 0 3.005-5.531 2.196-8.814 1.106-.466 2.767-.692 3.977-.744 1.426-.06 2.594-.858 2.594-2.506zm-20 .064h-2v-8h2v8zm15.755-1.302l1.394.167c1.075.129 1.105 1.525.051 1.584-2.749.154-5.06 1.013-6.12 1.556.43 1.748.92 3.463.92 5.534 0 2.505-.781 3.666-1.679.574-1.993-6.859-5.057-8.364-8.321-9.113v-6c2.521-.072 4.72-1.041 6.959-2.005 1.731-.745 4.849-1.495 6.416-.614 1.295.836 1.114 1.734.292 1.661l-.771-.032c-.815-.094-.92 1.068-.109 1.141 0 0 1.321.062 1.745.115.976.123 1.028 1.607-.04 1.551-.457-.024-1.143-.041-1.143-.041-.797-.031-.875 1.078-.141 1.172 0 0 .714.005 1.761.099s1.078 1.609-.004 1.563c-.868-.037-1.069-.027-1.069-.027-.75.005-.875 1.028-.141 1.115z"></path>
  </symbol>
  <symbol xmlns="http://www.w3.org/2000/svg" viewBox="0 0 24 24" id="iconmonstr-thumb-10">
    <path d="M21.406 9.558c-1.21-.051-2.87-.278-3.977-.744.809-3.283 1.253-8.814-2.196-8.814-1.861 0-2.351 1.668-2.833 3.329-1.548 5.336-3.946 6.816-6.4 7.401v-.73h-6v12h6v-.904c2.378.228 4.119.864 6.169 1.746 1.257.541 3.053 1.158 5.336 1.158 2.538 0 4.295-.997 5.009-3.686.5-1.877 1.486-7.25 1.486-8.25 0-1.648-1.168-2.446-2.594-2.506zm-17.406 10.442h-2v-8h2v8zm15.896-5.583s.201.01 1.069-.027c1.082-.046 1.051 1.469.004 1.563l-1.761.099c-.734.094-.656 1.203.141 1.172 0 0 .686-.017 1.143-.041 1.068-.056 1.016 1.429.04 1.551-.424.053-1.745.115-1.745.115-.811.072-.706 1.235.109 1.141l.771-.031c.822-.074 1.003.825-.292 1.661-1.567.881-4.685.131-6.416-.614-2.239-.965-4.438-1.934-6.959-2.006v-6c3.264-.749 6.328-2.254 8.321-9.113.898-3.092 1.679-1.931 1.679.574 0 2.071-.49 3.786-.921 5.533 1.061.543 3.371 1.402 6.12 1.556 1.055.059 1.024 1.455-.051 1.584l-1.394.167s-.608 1.111.142 1.116z"></path>
  </symbol>
  <symbol xmlns="http://www.w3.org/2000/svg" viewBox="0 0 24 24" id="iconmonstr-stop-2">
    <path d="M11.75 3.092v8.538c0 .383.688.391.688 0v-7.17c0-1.357 2.395-1.399 2.395 0v8.125c0 .5.491.573.676.197.176-.361.908-1.974.917-1.991.735-1.541 3.193-.605 2.429 1.209-.19.492-2.544 5.832-3.144 7.179-.629 1.411-1.857 2.821-4.126 2.821h-3.94c-2.388 0-3.645-1.417-3.645-3.895v-10.812c0-1.434 1.976-1.362 1.976-.066v4.741c0 .391.715.389.715 0v-7.618c0-1.475 2.208-1.435 2.208 0v7.192c0 .397.664.378.664-.008v-8.442c0-1.435 2.187-1.477 2.187 0zm-1.081-3.092c-1.055 0-1.972.499-2.53 1.277-1.833-.2-3.391 1.146-3.446 2.972-1.554.143-2.693 1.403-2.693 3.044v10.812c0 3.636 2.163 5.895 5.645 5.895h3.94c2.686 0 4.8-1.423 5.953-4.006.437-.981 2.873-6.496 3.17-7.24.464-1.119.373-2.297-.25-3.236-.761-1.146-2.233-1.75-3.624-1.41v-3.649c0-1.914-1.646-3.203-3.53-3.017-.532-.879-1.492-1.442-2.635-1.442z"></path>
  </symbol>
  <symbol xmlns="http://www.w3.org/2000/svg" fill-rule="evenodd" clip-rule="evenodd" viewBox="0 0 24 24" id="iconmonstr-building-8">
    <path d="M13 23l-9.983-.014v-9.979l8.974-7.995c1.124.999 2.25 1.998 3.378 2.998l2.255 1.999c1.127.999 2.252 1.992 3.376 2.991v10l-5.993-.014-.007-4.986h-2v5zm6-2l.019-7.121-7.028-6.193-6.991 6.218v7.096h6v-5h6v5h2zm-10-5v3h-2v-3h2zm3-15l12 10.654-1.328 1.494-10.672-9.488-10.672 9.488-1.328-1.494 12-10.654z"></path>
  </symbol>
  <symbol xmlns="http://www.w3.org/2000/svg" viewBox="0 0 24 26" id="iconmonstr-generation-7">
    <path d="M16.5 14.5c0 .828-.56 1.5-1.25 1.5s-1.25-.672-1.25-1.5.56-1.5 1.25-1.5 1.25.672 1.25 1.5zm-7.75-1.5c-.69 0-1.25.672-1.25 1.5s.56 1.5 1.25 1.5 1.25-.672 1.25-1.5-.56-1.5-1.25-1.5zm3.25 8.354c2.235 0 3-2.354 3-2.354h-6s.847 2.354 3 2.354zm12-6.041c0 1.765-.985 3.991-3.138 4.906-2.025 3.233-4.824 5.781-8.862 5.781-3.826 0-6.837-2.548-8.862-5.781-2.153-.916-3.138-3.142-3.138-4.906 0-2.053.862-3.8 2.71-3.964.852-9.099 8.57-8.408 9.837-10.849.323.559.477 1.571-.02 2.286.873-.045 2.344-1.304 2.755-2.552.754.366 1.033 1.577.656 2.354.542-.103 2.187-1.15 3.062-2.588.688 1.563.026 3.563-.708 4.771l-.012.001c1.796 1.707 2.781 4.129 3.01 6.576 1.859.165 2.71 1.917 2.71 3.965zm-2.58-1.866c-.235-.152-.531-.115-.672-.053-.56.25-1.214-.062-1.372-.66l-.001.016c-.333-2.604-1.125-4.854-2.611-5.565-6.427 7.009-10.82-.914-11.94 3.529-.101.582-.166 1.172-.166 1.766 0 .719-.743 1.209-1.406.914-.14-.062-.437-.1-.672.053-1 .651-.894 4.184 1.554 5.012.224.076.413.228.535.43 2.447 4.053 5.225 5.111 7.331 5.111 3.288 0 5.615-2.269 7.332-5.111.122-.202.312-.354.535-.43 2.447-.828 2.553-4.361 1.553-5.012z"></path>
  </symbol>
  <symbol fill="none" xmlns="http://www.w3.org/2000/svg" viewBox="0 0 68 36" id="iconmonstr-generation-couple">
    <path d="M56.2874 17.8889C56.2874 19.1769 55.4163 20.2222 54.343 20.2222C53.2696 20.2222 52.3985 19.1769 52.3985 17.8889C52.3985 16.6009 53.2696 15.5556 54.343 15.5556C55.4163 15.5556 56.2874 16.6009 56.2874 17.8889ZM44.2319 15.5556C43.1585 15.5556 42.2874 16.6009 42.2874 17.8889C42.2874 19.1769 43.1585 20.2222 44.2319 20.2222C45.3052 20.2222 46.1763 19.1769 46.1763 17.8889C46.1763 16.6009 45.3052 15.5556 44.2319 15.5556ZM49.2874 28.5507C52.7641 28.5507 53.9541 24.8889 53.9541 24.8889H44.6208C44.6208 24.8889 45.9383 28.5507 49.2874 28.5507ZM67.9541 19.5238C67.9541 22.5182 66.5603 26.894 62.7943 27.594C59.747 33.026 55.2079 35.7778 49.2874 35.7778C43.3685 35.7778 38.8279 33.026 35.7805 27.5956C34.7319 23 35.0432 19.5238 35.0432 19.5238L35.0432 12.9547C35.7479 5.02289 41.1814 0 49.2874 0C57.3934 0 62.827 5.02289 63.5316 12.9562C66.6988 13.1569 67.9541 16.1809 67.9541 19.5238ZM64.843 19.5238C64.843 17.8376 64.4868 16.6367 63.8614 16.2307C63.4383 15.9553 62.9048 16.0689 62.6854 16.1669C61.6619 16.6227 60.4983 15.8713 60.4983 14.7451C60.4983 13.5707 60.3428 11.2513 59.3425 8.98956C57.5396 5.63578 55.1628 11.0242 49.2874 11.0242C43.4121 11.0242 41.0352 5.63578 39.2323 8.99111C38.2321 11.2513 37.7319 13.5691 37.7319 14.7451V16.5C37.7319 16.5 38.0454 18.2247 37.6208 18.5V21C37.6208 21 37.8852 24.9169 38.1465 25.4256C41.8643 32.6667 47.4519 32.6667 49.2874 32.6667C51.1245 32.6667 56.709 32.6667 60.4283 25.4256C60.6896 24.9153 61.2108 24.5918 61.7816 24.5809C64.6641 24.5249 64.843 19.5736 64.843 19.5238Z" fill="#2B2B2B"></path>
    <path d="M26.4286 19.9C26.4286 21.0592 25.6286 22 24.6429 22C23.6571 22 22.8571 21.0592 22.8571 19.9C22.8571 18.7408 23.6571 17.8 24.6429 17.8C25.6286 17.8 26.4286 18.7408 26.4286 19.9ZM17.1429 19.9C17.1429 18.7408 16.3429 17.8 15.3571 17.8C14.3714 17.8 13.5714 18.7408 13.5714 19.9C13.5714 21.0592 14.3714 22 15.3571 22C16.3429 22 17.1429 21.0592 17.1429 19.9ZM20 29.4956C23.1929 29.4956 24.2857 26.2 24.2857 26.2H15.7143C15.7143 26.2 16.9243 29.4956 20 29.4956ZM40 24.2162C40 31.3114 34.1214 34.418 27.6757 33.2896C25.3086 35.0452 22.71 36 20 36C17.29 36 14.69 35.0452 12.3229 33.291C5.87857 34.418 0 31.3128 0 24.2162C0 13.019 8.05857 1 20 1C31.9414 1 40 13.019 40 24.2162V24.2162ZM30.4729 25.969C30.6471 25.6862 30.92 25.4734 31.2386 25.367C33.4743 24.625 34.2857 22.3262 34.2857 20.9626C34.2857 20.5706 34.2514 20.2234 34.2014 19.9028C28.2286 19.8734 24.2929 12.6424 24.4543 8.7658C22.4043 12.0166 18.39 15.9184 14.4643 15.9184C15.58 14.146 15.5586 12.8342 15.3571 11.3264C14.4529 13.1002 10.9029 18.7352 5.88143 19.5164C5.77857 19.9266 5.71429 20.4012 5.71429 20.9626C5.71429 22.3276 6.52571 24.6264 8.76143 25.367C9.08143 25.4734 9.35286 25.6862 9.52714 25.969C12.4 30.6324 16.1186 33.2 20 33.2C23.88 33.2 27.6 30.6324 30.4729 25.969Z" fill="#2B2B2B"></path>
  </symbol>
  <symbol clip-rule="evenodd" fill-rule="evenodd" stroke-linejoin="round" stroke-miterlimit="2" xmlns="http://www.w3.org/2000/svg" viewBox="0 0 24 24" id="iconmonstr-trash-can-lined">
    <path d="m4.015 5.494h-.253c-.413 0-.747-.335-.747-.747s.334-.747.747-.747h5.253v-1c0-.535.474-1 1-1h4c.526 0 1 .465 1 1v1h5.254c.412 0 .746.335.746.747s-.334.747-.746.747h-.254v15.435c0 .591-.448 1.071-1 1.071-2.873 0-11.127 0-14 0-.552 0-1-.48-1-1.071zm14.5 0h-13v15.006h13zm-4.25 2.506c-.414 0-.75.336-.75.75v8.5c0 .414.336.75.75.75s.75-.336.75-.75v-8.5c0-.414-.336-.75-.75-.75zm-4.5 0c-.414 0-.75.336-.75.75v8.5c0 .414.336.75.75.75s.75-.336.75-.75v-8.5c0-.414-.336-.75-.75-.75zm3.75-4v-.5h-3v.5z" fill-rule="nonzero"></path>
  </symbol>
  <symbol clip-rule="evenodd" fill-rule="evenodd" stroke-linejoin="round" stroke-miterlimit="2" xmlns="http://www.w3.org/2000/svg" viewBox="0 0 24 24" id="iconmonstr-pencil-lined">
    <path d="m9.134 19.319 11.587-11.588c.171-.171.279-.423.279-.684 0-.229-.083-.466-.28-.662l-3.115-3.104c-.185-.185-.429-.277-.672-.277s-.486.092-.672.277l-11.606 11.566c-.569 1.763-1.555 4.823-1.626 5.081-.02.075-.029.15-.029.224 0 .461.349.848.765.848.511 0 .991-.189 5.369-1.681zm-3.27-3.342 2.137 2.137-3.168 1.046zm.955-1.166 10.114-10.079 2.335 2.327-10.099 10.101z" fill-rule="nonzero"></path>
  </symbol>
  <symbol clip-rule="evenodd" fill-rule="evenodd" stroke-linejoin="round" stroke-miterlimit="2" xmlns="http://www.w3.org/2000/svg" viewBox="0 0 24 24" id="iconmonstr-magnifier-lined">
    <path d="m15.97 17.031c-1.479 1.238-3.384 1.985-5.461 1.985-4.697 0-8.509-3.812-8.509-8.508s3.812-8.508 8.509-8.508c4.695 0 8.508 3.812 8.508 8.508 0 2.078-.747 3.984-1.985 5.461l4.749 4.75c.146.146.219.338.219.531 0 .587-.537.75-.75.75-.192 0-.384-.073-.531-.22zm-5.461-13.53c-3.868 0-7.007 3.14-7.007 7.007s3.139 7.007 7.007 7.007c3.866 0 7.007-3.14 7.007-7.007s-3.141-7.007-7.007-7.007z" fill-rule="nonzero"></path>
  </symbol>
  <symbol clip-rule="evenodd" fill-rule="evenodd" stroke-linejoin="round" stroke-miterlimit="2" xmlns="http://www.w3.org/2000/svg" viewBox="0 0 24 24" id="iconmonstr-menu-dot-vertical-filled">
    <path d="m12 16.495c1.242 0 2.25 1.008 2.25 2.25s-1.008 2.25-2.25 2.25-2.25-1.008-2.25-2.25 1.008-2.25 2.25-2.25zm0-6.75c1.242 0 2.25 1.008 2.25 2.25s-1.008 2.25-2.25 2.25-2.25-1.008-2.25-2.25 1.008-2.25 2.25-2.25zm0-6.75c1.242 0 2.25 1.008 2.25 2.25s-1.008 2.25-2.25 2.25-2.25-1.008-2.25-2.25 1.008-2.25 2.25-2.25z"></path>
  </symbol>
  <symbol clip-rule="evenodd" fill-rule="evenodd" stroke-linejoin="round" stroke-miterlimit="2" xmlns="http://www.w3.org/2000/svg" viewBox="0 0 24 24" id="iconmonstr-check-mark-circle-lined">
    <path d="m11.998 2.005c5.517 0 9.997 4.48 9.997 9.997 0 5.518-4.48 9.998-9.997 9.998-5.518 0-9.998-4.48-9.998-9.998 0-5.517 4.48-9.997 9.998-9.997zm0 1.5c-4.69 0-8.498 3.807-8.498 8.497s3.808 8.498 8.498 8.498 8.497-3.808 8.497-8.498-3.807-8.497-8.497-8.497zm-5.049 8.886 3.851 3.43c.142.128.321.19.499.19.202 0 .405-.081.552-.242l5.953-6.509c.131-.143.196-.323.196-.502 0-.41-.331-.747-.748-.747-.204 0-.405.082-.554.243l-5.453 5.962-3.298-2.938c-.144-.127-.321-.19-.499-.19-.415 0-.748.335-.748.746 0 .205.084.409.249.557z" fill-rule="nonzero"></path>
  </symbol>
  <symbol xmlns="http://www.w3.org/2000/svg" viewBox="0 0 24 24" id="iconmonstr-cursor-23">
    <path d="M12 10c1.104 0 2 .896 2 2s-.896 2-2 2-2-.896-2-2 .896-2 2-2zm-3.857 3c-.084-.321-.143-.652-.143-1s.059-.679.143-1h-2.143v-4l-6 5 6 5v-4h2.143zm7.714-2c.084.321.143.652.143 1s-.059.679-.143 1h2.143v4l6-5-6-5v4h-2.143zm-2.857 4.857c-.321.084-.652.143-1 .143s-.679-.059-1-.143v2.143h-4l5 6 5-6h-4v-2.143zm-2-7.714c.321-.084.652-.143 1-.143s.679.059 1 .143v-2.143h4l-5-6-5 6h4v2.143z"></path>
  </symbol>
  <symbol xmlns="http://www.w3.org/2000/svg" viewBox="0 0 24 24" id="iconmonstr-user-20">
    <path d="M12 0c-6.627 0-12 5.373-12 12s5.373 12 12 12 12-5.373 12-12-5.373-12-12-12zm7.753 18.305c-.261-.586-.789-.991-1.871-1.241-2.293-.529-4.428-.993-3.393-2.945 3.145-5.942.833-9.119-2.489-9.119-3.388 0-5.644 3.299-2.489 9.119 1.066 1.964-1.148 2.427-3.393 2.945-1.084.25-1.608.658-1.867 1.246-1.405-1.723-2.251-3.919-2.251-6.31 0-5.514 4.486-10 10-10s10 4.486 10 10c0 2.389-.845 4.583-2.247 6.305z"></path>
  </symbol>
  <symbol xmlns="http://www.w3.org/2000/svg" viewBox="0 0 24 24" id="iconmonstr-user-5">
    <path d="M19 7.001c0 3.865-3.134 7-7 7s-7-3.135-7-7c0-3.867 3.134-7.001 7-7.001s7 3.134 7 7.001zm-1.598 7.18c-1.506 1.137-3.374 1.82-5.402 1.82-2.03 0-3.899-.685-5.407-1.822-4.072 1.793-6.593 7.376-6.593 9.821h24c0-2.423-2.6-8.006-6.598-9.819z"></path>
  </symbol>
  <symbol xmlns="http://www.w3.org/2000/svg" viewBox="0 0 24 24" id="iconmonstr-gear-1">
    <path d="M24 13.616v-3.232c-1.651-.587-2.694-.752-3.219-2.019v-.001c-.527-1.271.1-2.134.847-3.707l-2.285-2.285c-1.561.742-2.433 1.375-3.707.847h-.001c-1.269-.526-1.435-1.576-2.019-3.219h-3.232c-.582 1.635-.749 2.692-2.019 3.219h-.001c-1.271.528-2.132-.098-3.707-.847l-2.285 2.285c.745 1.568 1.375 2.434.847 3.707-.527 1.271-1.584 1.438-3.219 2.02v3.232c1.632.58 2.692.749 3.219 2.019.53 1.282-.114 2.166-.847 3.707l2.285 2.286c1.562-.743 2.434-1.375 3.707-.847h.001c1.27.526 1.436 1.579 2.019 3.219h3.232c.582-1.636.75-2.69 2.027-3.222h.001c1.262-.524 2.12.101 3.698.851l2.285-2.286c-.744-1.563-1.375-2.433-.848-3.706.527-1.271 1.588-1.44 3.221-2.021zm-12 2.384c-2.209 0-4-1.791-4-4s1.791-4 4-4 4 1.791 4 4-1.791 4-4 4z"></path>
  </symbol>
  <symbol xmlns="http://www.w3.org/2000/svg" viewBox="0 0 24 24" id="iconmonstr-log-out-7">
    <path d="M16 9v-4l8 7-8 7v-4h-8v-6h8zm-16-7v20h14v-2h-12v-16h12v-2h-14z"></path>
  </symbol>
  <symbol xmlns="http://www.w3.org/2000/svg" viewBox="0 0 24 24" id="iconmonstr-user-29">
    <path d="M17.997 18h-11.995l-.002-.623c0-1.259.1-1.986 1.588-2.33 1.684-.389 3.344-.736 2.545-2.209-2.366-4.363-.674-6.838 1.866-6.838 2.491 0 4.226 2.383 1.866 6.839-.775 1.464.826 1.812 2.545 2.209 1.49.344 1.589 1.072 1.589 2.333l-.002.619zm4.811-2.214c-1.29-.298-2.49-.559-1.909-1.657 1.769-3.342.469-5.129-1.4-5.129-1.265 0-2.248.817-2.248 2.324 0 3.903 2.268 1.77 2.246 6.676h4.501l.002-.463c0-.946-.074-1.493-1.192-1.751zm-22.806 2.214h4.501c-.021-4.906 2.246-2.772 2.246-6.676 0-1.507-.983-2.324-2.248-2.324-1.869 0-3.169 1.787-1.399 5.129.581 1.099-.619 1.359-1.909 1.657-1.119.258-1.193.805-1.193 1.751l.002.463z"></path>
  </symbol>
  <symbol xmlns="http://www.w3.org/2000/svg" viewBox="0 0 24 24" id="iconmonstr-speech-bubble-26">
    <path d="M10 3.002c4.411 0 8 2.849 8 6.35 0 3.035-3.029 6.311-7.925 6.311-1.58 0-2.718-.317-3.718-.561-.966.593-1.256.813-3.006 1.373.415-1.518.362-2.182.331-3.184-.837-1.001-1.682-2.069-1.682-3.939 0-3.501 3.589-6.35 8-6.35zm0-2.002c-5.281 0-10 3.526-10 8.352 0 1.711.615 3.391 1.705 4.695.047 1.527-.851 3.718-1.661 5.312 2.168-.391 5.252-1.258 6.649-2.115 1.181.289 2.312.421 3.382.421 5.903 0 9.925-4.038 9.925-8.313 0-4.852-4.751-8.352-10-8.352zm11.535 11.174c-.161.488-.361.961-.601 1.416 1.677 1.262 2.257 3.226.464 5.365-.021.745-.049 1.049.138 1.865-.892-.307-.979-.392-1.665-.813-2.127.519-4.265.696-6.089-.855-.562.159-1.145.278-1.74.364 1.513 1.877 4.298 2.897 7.577 2.1.914.561 2.933 1.127 4.352 1.385-.53-1.045-1.117-2.479-1.088-3.479 1.755-2.098 1.543-5.436-1.348-7.348zm-15.035-3.763c-.591 0-1.071.479-1.071 1.071s.48 1.071 1.071 1.071 1.071-.479 1.071-1.071-.48-1.071-1.071-1.071zm3.5 0c-.591 0-1.071.479-1.071 1.071s.48 1.071 1.071 1.071 1.071-.479 1.071-1.071-.48-1.071-1.071-1.071zm3.5 0c-.591 0-1.071.479-1.071 1.071s.48 1.071 1.071 1.071 1.071-.479 1.071-1.071-.48-1.071-1.071-1.071z"></path>
  </symbol>
</svg>
